G04 (created by PCBNEW (2013-07-07 BZR 4022)-stable) date Mon 29 Aug 2022 01:34:01 AM CDT*
%MOIN*%
G04 Gerber Fmt 3.4, Leading zero omitted, Abs format*
%FSLAX34Y34*%
G01*
G70*
G90*
G04 APERTURE LIST*
%ADD10C,0.00590551*%
%ADD11R,0.1035X0.069*%
%ADD12O,0.1035X0.069*%
%ADD13R,0.059X0.059*%
%ADD14O,0.059X0.059*%
%ADD15R,0.059X0.0885*%
%ADD16O,0.059X0.0885*%
%ADD17R,0.0885X0.059*%
%ADD18O,0.0885X0.059*%
%ADD19R,0.114X0.059*%
%ADD20R,0.069X0.069*%
%ADD21O,0.069X0.069*%
%ADD22R,0.079X0.079*%
%ADD23C,0.079*%
%ADD24C,0.23622*%
%ADD25C,0.059*%
%ADD26C,0.01*%
%ADD27C,0.02*%
G04 APERTURE END LIST*
G54D10*
G54D11*
X51827Y-67500D03*
G54D12*
X53172Y-67500D03*
G54D13*
X52500Y-61000D03*
G54D14*
X52500Y-62000D03*
G54D13*
X52500Y-65000D03*
G54D14*
X52500Y-64000D03*
G54D15*
X52500Y-26352D03*
G54D16*
X53500Y-26352D03*
X54500Y-26352D03*
X55500Y-26352D03*
X57500Y-23647D03*
X56500Y-23647D03*
X55500Y-23647D03*
X54500Y-23647D03*
X56500Y-26352D03*
X57500Y-26352D03*
X58500Y-26352D03*
X58500Y-23647D03*
X59500Y-23647D03*
X53500Y-23647D03*
X59500Y-26352D03*
X52500Y-23647D03*
G54D17*
X63647Y-55000D03*
G54D18*
X63647Y-56000D03*
X63647Y-57000D03*
X63647Y-58000D03*
X66352Y-60000D03*
X66352Y-59000D03*
X66352Y-58000D03*
X66352Y-57000D03*
X63647Y-59000D03*
X63647Y-60000D03*
X63647Y-61000D03*
X66352Y-61000D03*
X66352Y-62000D03*
X66352Y-56000D03*
X63647Y-62000D03*
X66352Y-55000D03*
G54D17*
X63647Y-44500D03*
G54D18*
X63647Y-45500D03*
X63647Y-46500D03*
X63647Y-47500D03*
X66352Y-49500D03*
X66352Y-48500D03*
X66352Y-47500D03*
X66352Y-46500D03*
X63647Y-48500D03*
X63647Y-49500D03*
X63647Y-50500D03*
X66352Y-50500D03*
X66352Y-51500D03*
X66352Y-45500D03*
X63647Y-51500D03*
X66352Y-44500D03*
G54D17*
X63647Y-34000D03*
G54D18*
X63647Y-35000D03*
X63647Y-36000D03*
X63647Y-37000D03*
X66352Y-39000D03*
X66352Y-38000D03*
X66352Y-37000D03*
X66352Y-36000D03*
X63647Y-38000D03*
X63647Y-39000D03*
X63647Y-40000D03*
X66352Y-40000D03*
X66352Y-41000D03*
X66352Y-35000D03*
X63647Y-41000D03*
X66352Y-34000D03*
G54D15*
X52500Y-58852D03*
G54D16*
X53500Y-58852D03*
X54500Y-58852D03*
X55500Y-58852D03*
X57500Y-56147D03*
X56500Y-56147D03*
X55500Y-56147D03*
X54500Y-56147D03*
X56500Y-58852D03*
X57500Y-58852D03*
X58500Y-58852D03*
X58500Y-56147D03*
X59500Y-56147D03*
X53500Y-56147D03*
X59500Y-58852D03*
X52500Y-56147D03*
G54D15*
X52500Y-52352D03*
G54D16*
X53500Y-52352D03*
X54500Y-52352D03*
X55500Y-52352D03*
X57500Y-49647D03*
X56500Y-49647D03*
X55500Y-49647D03*
X54500Y-49647D03*
X56500Y-52352D03*
X57500Y-52352D03*
X58500Y-52352D03*
X58500Y-49647D03*
X59500Y-49647D03*
X53500Y-49647D03*
X59500Y-52352D03*
X52500Y-49647D03*
G54D15*
X52500Y-45852D03*
G54D16*
X53500Y-45852D03*
X54500Y-45852D03*
X55500Y-45852D03*
X57500Y-43147D03*
X56500Y-43147D03*
X55500Y-43147D03*
X54500Y-43147D03*
X56500Y-45852D03*
X57500Y-45852D03*
X58500Y-45852D03*
X58500Y-43147D03*
X59500Y-43147D03*
X53500Y-43147D03*
X59500Y-45852D03*
X52500Y-43147D03*
G54D15*
X52500Y-39352D03*
G54D16*
X53500Y-39352D03*
X54500Y-39352D03*
X55500Y-39352D03*
X57500Y-36647D03*
X56500Y-36647D03*
X55500Y-36647D03*
X54500Y-36647D03*
X56500Y-39352D03*
X57500Y-39352D03*
X58500Y-39352D03*
X58500Y-36647D03*
X59500Y-36647D03*
X53500Y-36647D03*
X59500Y-39352D03*
X52500Y-36647D03*
G54D15*
X52500Y-32852D03*
G54D16*
X53500Y-32852D03*
X54500Y-32852D03*
X55500Y-32852D03*
X57500Y-30147D03*
X56500Y-30147D03*
X55500Y-30147D03*
X54500Y-30147D03*
X56500Y-32852D03*
X57500Y-32852D03*
X58500Y-32852D03*
X58500Y-30147D03*
X59500Y-30147D03*
X53500Y-30147D03*
X59500Y-32852D03*
X52500Y-30147D03*
G54D17*
X63647Y-23500D03*
G54D18*
X63647Y-24500D03*
X63647Y-25500D03*
X63647Y-26500D03*
X66352Y-28500D03*
X66352Y-27500D03*
X66352Y-26500D03*
X66352Y-25500D03*
X63647Y-27500D03*
X63647Y-28500D03*
X63647Y-29500D03*
X66352Y-29500D03*
X66352Y-30500D03*
X66352Y-24500D03*
X63647Y-30500D03*
X66352Y-23500D03*
G54D19*
X65725Y-22000D03*
X64275Y-22000D03*
X65725Y-32500D03*
X64275Y-32500D03*
X65725Y-43000D03*
X64275Y-43000D03*
X65725Y-53500D03*
X64275Y-53500D03*
G54D20*
X55000Y-62000D03*
G54D21*
X55000Y-63000D03*
X55000Y-64000D03*
G54D22*
X46000Y-65500D03*
G54D23*
X47000Y-65500D03*
G54D22*
X33000Y-55000D03*
G54D23*
X33000Y-56000D03*
G54D22*
X33000Y-59500D03*
G54D23*
X33000Y-60500D03*
G54D22*
X33000Y-46000D03*
G54D23*
X33000Y-47000D03*
G54D22*
X33000Y-50500D03*
G54D23*
X33000Y-51500D03*
G54D22*
X33000Y-35500D03*
G54D23*
X33000Y-36500D03*
G54D22*
X33000Y-40000D03*
G54D23*
X33000Y-41000D03*
G54D22*
X33000Y-26500D03*
G54D23*
X33000Y-27500D03*
G54D22*
X33000Y-31000D03*
G54D23*
X33000Y-32000D03*
G54D22*
X37500Y-21000D03*
G54D23*
X38500Y-21000D03*
G54D14*
X55000Y-67500D03*
X59000Y-67500D03*
G54D22*
X60000Y-65500D03*
G54D23*
X61000Y-65500D03*
X62000Y-65500D03*
G54D22*
X58500Y-20500D03*
G54D23*
X59500Y-20500D03*
X60500Y-20500D03*
G54D24*
X30750Y-18750D03*
X66250Y-18750D03*
X66250Y-67250D03*
X30750Y-67250D03*
G54D22*
X37500Y-65500D03*
G54D23*
X38500Y-65500D03*
G54D13*
X37500Y-27500D03*
G54D25*
X39500Y-27500D03*
X41500Y-27500D03*
X41500Y-25500D03*
X39500Y-25500D03*
X37500Y-25500D03*
G54D13*
X43000Y-27500D03*
G54D25*
X45000Y-27500D03*
X47000Y-27500D03*
X47000Y-25500D03*
X45000Y-25500D03*
X43000Y-25500D03*
G54D13*
X37500Y-32000D03*
G54D25*
X39500Y-32000D03*
X41500Y-32000D03*
X41500Y-30000D03*
X39500Y-30000D03*
X37500Y-30000D03*
G54D13*
X43000Y-32000D03*
G54D25*
X45000Y-32000D03*
X47000Y-32000D03*
X47000Y-30000D03*
X45000Y-30000D03*
X43000Y-30000D03*
G54D13*
X37500Y-36500D03*
G54D25*
X39500Y-36500D03*
X41500Y-36500D03*
X41500Y-34500D03*
X39500Y-34500D03*
X37500Y-34500D03*
G54D13*
X43000Y-36500D03*
G54D25*
X45000Y-36500D03*
X47000Y-36500D03*
X47000Y-34500D03*
X45000Y-34500D03*
X43000Y-34500D03*
G54D13*
X37500Y-41000D03*
G54D25*
X39500Y-41000D03*
X41500Y-41000D03*
X41500Y-39000D03*
X39500Y-39000D03*
X37500Y-39000D03*
G54D13*
X43000Y-41000D03*
G54D25*
X45000Y-41000D03*
X47000Y-41000D03*
X47000Y-39000D03*
X45000Y-39000D03*
X43000Y-39000D03*
G54D13*
X37500Y-47000D03*
G54D25*
X39500Y-47000D03*
X41500Y-47000D03*
X41500Y-45000D03*
X39500Y-45000D03*
X37500Y-45000D03*
G54D13*
X43000Y-47000D03*
G54D25*
X45000Y-47000D03*
X47000Y-47000D03*
X47000Y-45000D03*
X45000Y-45000D03*
X43000Y-45000D03*
G54D13*
X37500Y-51500D03*
G54D25*
X39500Y-51500D03*
X41500Y-51500D03*
X41500Y-49500D03*
X39500Y-49500D03*
X37500Y-49500D03*
G54D13*
X43000Y-51500D03*
G54D25*
X45000Y-51500D03*
X47000Y-51500D03*
X47000Y-49500D03*
X45000Y-49500D03*
X43000Y-49500D03*
G54D13*
X37500Y-56000D03*
G54D25*
X39500Y-56000D03*
X41500Y-56000D03*
X41500Y-54000D03*
X39500Y-54000D03*
X37500Y-54000D03*
G54D13*
X43000Y-56000D03*
G54D25*
X45000Y-56000D03*
X47000Y-56000D03*
X47000Y-54000D03*
X45000Y-54000D03*
X43000Y-54000D03*
G54D13*
X37500Y-60500D03*
G54D25*
X39500Y-60500D03*
X41500Y-60500D03*
X41500Y-58500D03*
X39500Y-58500D03*
X37500Y-58500D03*
G54D13*
X43000Y-60500D03*
G54D25*
X45000Y-60500D03*
X47000Y-60500D03*
X47000Y-58500D03*
X45000Y-58500D03*
X43000Y-58500D03*
G54D14*
X31000Y-25500D03*
X35000Y-25500D03*
X31000Y-28500D03*
X35000Y-28500D03*
X31000Y-30000D03*
X35000Y-30000D03*
X31000Y-33000D03*
X35000Y-33000D03*
X31000Y-34500D03*
X35000Y-34500D03*
X31000Y-37500D03*
X35000Y-37500D03*
X31000Y-39000D03*
X35000Y-39000D03*
X31000Y-42000D03*
X35000Y-42000D03*
X31000Y-45000D03*
X35000Y-45000D03*
X31000Y-48000D03*
X35000Y-48000D03*
X31000Y-49500D03*
X35000Y-49500D03*
X31000Y-52500D03*
X35000Y-52500D03*
X31000Y-54000D03*
X35000Y-54000D03*
X31000Y-57000D03*
X35000Y-57000D03*
X31000Y-58500D03*
X35000Y-58500D03*
X31000Y-61500D03*
X35000Y-61500D03*
G54D26*
X52500Y-65000D02*
X52500Y-67000D01*
X52500Y-67000D02*
X52000Y-67500D01*
X66500Y-49500D02*
X67000Y-49500D01*
X67500Y-59000D02*
X66500Y-60000D01*
X67500Y-50750D02*
X67500Y-59000D01*
X67500Y-50000D02*
X67500Y-50750D01*
X67250Y-49750D02*
X67500Y-50000D01*
X67000Y-49500D02*
X67250Y-49750D01*
X66500Y-39000D02*
X67000Y-39000D01*
X67500Y-48500D02*
X66500Y-49500D01*
X67500Y-41000D02*
X67500Y-48500D01*
X67500Y-39500D02*
X67500Y-41000D01*
X67000Y-39000D02*
X67500Y-39500D01*
X66500Y-28500D02*
X67000Y-28500D01*
X67500Y-38000D02*
X66500Y-39000D01*
X67500Y-36250D02*
X67500Y-38000D01*
X67500Y-32250D02*
X67500Y-36250D01*
X67500Y-29000D02*
X67500Y-32250D01*
X67000Y-28500D02*
X67500Y-29000D01*
X67500Y-21750D02*
X67500Y-27500D01*
X67500Y-27500D02*
X66500Y-28500D01*
X60500Y-20500D02*
X66250Y-20500D01*
X66250Y-20500D02*
X66750Y-21000D01*
X66500Y-28500D02*
X67500Y-27500D01*
X67500Y-21750D02*
X66750Y-21000D01*
X62000Y-65500D02*
X62500Y-65500D01*
X62500Y-65500D02*
X65000Y-63000D01*
X65000Y-63000D02*
X65500Y-62500D01*
X65500Y-62500D02*
X65500Y-62000D01*
X65500Y-62000D02*
X65500Y-60500D01*
X65500Y-60500D02*
X66000Y-60000D01*
X66000Y-60000D02*
X66500Y-60000D01*
X66500Y-25500D02*
X66750Y-25500D01*
X66750Y-25500D02*
X67000Y-25250D01*
X58500Y-20500D02*
X58500Y-21000D01*
X67000Y-24750D02*
X67000Y-25250D01*
X67000Y-24250D02*
X67000Y-24750D01*
X66750Y-24000D02*
X67000Y-24250D01*
X66250Y-24000D02*
X66750Y-24000D01*
X65250Y-24000D02*
X66250Y-24000D01*
X65000Y-23750D02*
X65250Y-24000D01*
X65000Y-23250D02*
X65000Y-23750D01*
X65000Y-23000D02*
X65000Y-23250D01*
X64750Y-22750D02*
X65000Y-23000D01*
X60250Y-22750D02*
X64750Y-22750D01*
X58500Y-21000D02*
X60250Y-22750D01*
X60000Y-65500D02*
X60000Y-66000D01*
X66500Y-62500D02*
X66500Y-62000D01*
X64500Y-64500D02*
X66500Y-62500D01*
X62500Y-66500D02*
X64500Y-64500D01*
X60500Y-66500D02*
X62500Y-66500D01*
X60000Y-66000D02*
X60500Y-66500D01*
X55000Y-63000D02*
X55500Y-63000D01*
X55500Y-63000D02*
X59000Y-66500D01*
X59000Y-66500D02*
X59000Y-67500D01*
X66500Y-48500D02*
X66250Y-48500D01*
X67250Y-58250D02*
X66500Y-59000D01*
X67250Y-57750D02*
X67250Y-58250D01*
X67250Y-56000D02*
X67250Y-57750D01*
X67250Y-51250D02*
X67250Y-56000D01*
X67250Y-50250D02*
X67250Y-51250D01*
X67000Y-50000D02*
X67250Y-50250D01*
X66750Y-50000D02*
X67000Y-50000D01*
X65750Y-50000D02*
X66750Y-50000D01*
X65500Y-49750D02*
X65750Y-50000D01*
X65500Y-49250D02*
X65500Y-49750D01*
X66250Y-48500D02*
X65500Y-49250D01*
X66500Y-38000D02*
X66250Y-38000D01*
X67250Y-47750D02*
X66500Y-48500D01*
X67250Y-39750D02*
X67250Y-47750D01*
X67000Y-39500D02*
X67250Y-39750D01*
X65750Y-39500D02*
X67000Y-39500D01*
X65500Y-39250D02*
X65750Y-39500D01*
X65500Y-38750D02*
X65500Y-39250D01*
X66250Y-38000D02*
X65500Y-38750D01*
X66500Y-27500D02*
X66250Y-27500D01*
X66750Y-38000D02*
X66500Y-38000D01*
X67250Y-37500D02*
X66750Y-38000D01*
X67250Y-29250D02*
X67250Y-37500D01*
X67000Y-29000D02*
X67250Y-29250D01*
X65750Y-29000D02*
X67000Y-29000D01*
X65500Y-28750D02*
X65750Y-29000D01*
X65500Y-28250D02*
X65500Y-28750D01*
X66250Y-27500D02*
X65500Y-28250D01*
X66500Y-27500D02*
X67250Y-26750D01*
X59500Y-20750D02*
X59500Y-20500D01*
X60000Y-21250D02*
X59500Y-20750D01*
X65750Y-21250D02*
X60000Y-21250D01*
X66500Y-21250D02*
X65750Y-21250D01*
X67250Y-22000D02*
X66500Y-21250D01*
X67250Y-26750D02*
X67250Y-22000D01*
X61000Y-65500D02*
X62000Y-64500D01*
X62000Y-64500D02*
X62500Y-64500D01*
X62500Y-64500D02*
X65000Y-62000D01*
X65000Y-62000D02*
X65000Y-61000D01*
X65000Y-61000D02*
X65000Y-59500D01*
X65000Y-59500D02*
X65500Y-59000D01*
X65500Y-59000D02*
X66500Y-59000D01*
X47500Y-46000D02*
X50500Y-43000D01*
X50500Y-43000D02*
X50750Y-43000D01*
X52500Y-43000D02*
X50750Y-43000D01*
X46000Y-46000D02*
X45000Y-47000D01*
X47500Y-46000D02*
X46000Y-46000D01*
X47000Y-30000D02*
X47750Y-29250D01*
X53500Y-29500D02*
X53500Y-30000D01*
X53250Y-29250D02*
X53500Y-29500D01*
X47750Y-29250D02*
X53250Y-29250D01*
X53750Y-30750D02*
X54250Y-30750D01*
X47250Y-33500D02*
X42500Y-33500D01*
X49250Y-31500D02*
X47250Y-33500D01*
X41500Y-34500D02*
X42500Y-33500D01*
X49750Y-31000D02*
X49250Y-31500D01*
X53750Y-30750D02*
X53000Y-30750D01*
X53000Y-30750D02*
X50000Y-30750D01*
X50000Y-30750D02*
X49750Y-31000D01*
X54500Y-30500D02*
X54500Y-30000D01*
X54250Y-30750D02*
X54500Y-30500D01*
X66500Y-30500D02*
X67000Y-31000D01*
X67000Y-35500D02*
X66500Y-36000D01*
X67000Y-31000D02*
X67000Y-35500D01*
X66500Y-41000D02*
X67000Y-41500D01*
X67000Y-46000D02*
X66500Y-46500D01*
X67000Y-41500D02*
X67000Y-46000D01*
X66500Y-51500D02*
X67000Y-52000D01*
X67000Y-56500D02*
X66500Y-57000D01*
X67000Y-52000D02*
X67000Y-56500D01*
X55500Y-30000D02*
X55500Y-30750D01*
X40000Y-37000D02*
X39500Y-36500D01*
X40250Y-37000D02*
X40000Y-37000D01*
X41250Y-37000D02*
X40250Y-37000D01*
X42000Y-37000D02*
X41250Y-37000D01*
X42250Y-36750D02*
X42000Y-37000D01*
X42250Y-36000D02*
X42250Y-36750D01*
X42750Y-35500D02*
X42250Y-36000D01*
X43250Y-35500D02*
X42750Y-35500D01*
X44000Y-34750D02*
X43250Y-35500D01*
X44000Y-34500D02*
X44000Y-34750D01*
X44750Y-33750D02*
X44000Y-34500D01*
X47750Y-33750D02*
X44750Y-33750D01*
X48750Y-32750D02*
X47750Y-33750D01*
X50500Y-31000D02*
X48750Y-32750D01*
X50750Y-31000D02*
X50500Y-31000D01*
X53750Y-31000D02*
X50750Y-31000D01*
X55250Y-31000D02*
X53750Y-31000D01*
X55500Y-30750D02*
X55250Y-31000D01*
X55500Y-30000D02*
X55500Y-29750D01*
X55500Y-31250D02*
X56250Y-31250D01*
X51000Y-31250D02*
X50750Y-31500D01*
X50750Y-31500D02*
X49750Y-32500D01*
X47000Y-34500D02*
X47750Y-34500D01*
X49750Y-32500D02*
X47750Y-34500D01*
X55500Y-31250D02*
X51000Y-31250D01*
X56500Y-30750D02*
X56500Y-30000D01*
X56500Y-31000D02*
X56500Y-30750D01*
X56250Y-31250D02*
X56500Y-31000D01*
X52500Y-36500D02*
X51750Y-36500D01*
X51750Y-36500D02*
X50000Y-38250D01*
X40000Y-41500D02*
X39500Y-41000D01*
X41500Y-41500D02*
X40000Y-41500D01*
X42000Y-41500D02*
X41500Y-41500D01*
X42250Y-41250D02*
X42000Y-41500D01*
X42250Y-39250D02*
X42250Y-41250D01*
X42250Y-38750D02*
X42250Y-39250D01*
X42750Y-38250D02*
X42250Y-38750D01*
X50000Y-38250D02*
X42750Y-38250D01*
X41500Y-39000D02*
X42500Y-38000D01*
X53500Y-36250D02*
X53500Y-36500D01*
X53250Y-36000D02*
X53500Y-36250D01*
X53000Y-35750D02*
X53250Y-36000D01*
X52500Y-35750D02*
X53000Y-35750D01*
X52000Y-35750D02*
X52500Y-35750D01*
X49750Y-38000D02*
X52000Y-35750D01*
X42500Y-38000D02*
X49750Y-38000D01*
X52250Y-37750D02*
X51500Y-37750D01*
X51500Y-37750D02*
X49500Y-39750D01*
X45000Y-41000D02*
X46250Y-39750D01*
X46250Y-39750D02*
X49500Y-39750D01*
X55500Y-37500D02*
X55500Y-36500D01*
X55250Y-37750D02*
X55500Y-37500D01*
X53750Y-37750D02*
X55250Y-37750D01*
X52250Y-37750D02*
X53750Y-37750D01*
X41500Y-58500D02*
X41500Y-58250D01*
X42250Y-57500D02*
X42500Y-57500D01*
X41500Y-58250D02*
X42250Y-57500D01*
X56500Y-50750D02*
X56500Y-49500D01*
X56250Y-51000D02*
X56500Y-50750D01*
X53250Y-51000D02*
X56250Y-51000D01*
X52000Y-51000D02*
X53250Y-51000D01*
X48000Y-55000D02*
X52000Y-51000D01*
X48000Y-56000D02*
X48000Y-55000D01*
X46500Y-57500D02*
X48000Y-56000D01*
X44750Y-57500D02*
X46500Y-57500D01*
X42500Y-57500D02*
X44750Y-57500D01*
X52500Y-49500D02*
X52000Y-49500D01*
X40000Y-56500D02*
X39500Y-56000D01*
X41500Y-56500D02*
X40000Y-56500D01*
X42000Y-56500D02*
X41500Y-56500D01*
X42250Y-56250D02*
X42000Y-56500D01*
X42250Y-53532D02*
X42250Y-56250D01*
X42516Y-53266D02*
X42250Y-53532D01*
X46233Y-53266D02*
X42516Y-53266D01*
X46250Y-53250D02*
X46233Y-53266D01*
X48250Y-53250D02*
X46250Y-53250D01*
X52000Y-49500D02*
X48250Y-53250D01*
X41500Y-54000D02*
X41500Y-53750D01*
X42250Y-53000D02*
X42500Y-53000D01*
X41500Y-53750D02*
X42250Y-53000D01*
X53500Y-49250D02*
X53500Y-49500D01*
X53000Y-48750D02*
X53500Y-49250D01*
X52250Y-48750D02*
X53000Y-48750D01*
X48000Y-53000D02*
X52250Y-48750D01*
X46750Y-53000D02*
X48000Y-53000D01*
X42500Y-53000D02*
X46750Y-53000D01*
X54500Y-49500D02*
X54500Y-50250D01*
X48000Y-54000D02*
X47000Y-54000D01*
X48500Y-53500D02*
X48000Y-54000D01*
X50250Y-51750D02*
X48500Y-53500D01*
X51500Y-50500D02*
X50250Y-51750D01*
X52000Y-50500D02*
X51500Y-50500D01*
X54250Y-50500D02*
X52000Y-50500D01*
X54500Y-50250D02*
X54250Y-50500D01*
X45000Y-60500D02*
X46000Y-60500D01*
X50500Y-56000D02*
X52500Y-56000D01*
X46000Y-60500D02*
X50500Y-56000D01*
X47000Y-58500D02*
X50250Y-55250D01*
X53500Y-55750D02*
X53500Y-56000D01*
X53000Y-55250D02*
X53500Y-55750D01*
X50250Y-55250D02*
X53000Y-55250D01*
X56500Y-36500D02*
X56500Y-37750D01*
X43500Y-43000D02*
X41500Y-45000D01*
X45000Y-43000D02*
X43500Y-43000D01*
X46750Y-43000D02*
X45000Y-43000D01*
X49500Y-40250D02*
X46750Y-43000D01*
X51000Y-38750D02*
X49500Y-40250D01*
X51750Y-38000D02*
X51000Y-38750D01*
X52000Y-38000D02*
X51750Y-38000D01*
X56250Y-38000D02*
X52000Y-38000D01*
X56500Y-37750D02*
X56250Y-38000D01*
X52000Y-37500D02*
X51250Y-37500D01*
X51250Y-37500D02*
X49750Y-39000D01*
X47000Y-39000D02*
X49750Y-39000D01*
X54500Y-37250D02*
X54500Y-36500D01*
X54250Y-37500D02*
X54500Y-37250D01*
X53250Y-37500D02*
X54250Y-37500D01*
X52000Y-37500D02*
X53250Y-37500D01*
X53500Y-43000D02*
X53500Y-42750D01*
X49750Y-42250D02*
X47000Y-45000D01*
X50750Y-42250D02*
X49750Y-42250D01*
X52250Y-42250D02*
X50750Y-42250D01*
X53000Y-42250D02*
X52250Y-42250D01*
X53500Y-42750D02*
X53000Y-42250D01*
X53750Y-24500D02*
X54250Y-24500D01*
X54500Y-24250D02*
X54500Y-23500D01*
X54250Y-24500D02*
X54500Y-24250D01*
X48000Y-24500D02*
X47000Y-25500D01*
X53250Y-24500D02*
X48000Y-24500D01*
X53750Y-24500D02*
X53250Y-24500D01*
X52500Y-23500D02*
X46000Y-23500D01*
X40000Y-28000D02*
X39500Y-27500D01*
X41250Y-28000D02*
X40000Y-28000D01*
X42000Y-28000D02*
X41250Y-28000D01*
X42250Y-27750D02*
X42000Y-28000D01*
X42250Y-27000D02*
X42250Y-27750D01*
X42750Y-26500D02*
X42250Y-27000D01*
X43000Y-26500D02*
X42750Y-26500D01*
X46000Y-23500D02*
X43000Y-26500D01*
X41500Y-25500D02*
X44250Y-22750D01*
X52750Y-22750D02*
X53500Y-23500D01*
X44250Y-22750D02*
X52750Y-22750D01*
X53750Y-24750D02*
X55250Y-24750D01*
X47500Y-26250D02*
X46250Y-26250D01*
X49000Y-24750D02*
X47500Y-26250D01*
X53750Y-24750D02*
X49000Y-24750D01*
X45000Y-27500D02*
X46250Y-26250D01*
X55500Y-24500D02*
X55500Y-23500D01*
X55250Y-24750D02*
X55500Y-24500D01*
X55750Y-25000D02*
X56250Y-25000D01*
X46750Y-29000D02*
X45000Y-29000D01*
X50750Y-25000D02*
X46750Y-29000D01*
X54750Y-25000D02*
X50750Y-25000D01*
X55750Y-25000D02*
X54750Y-25000D01*
X42250Y-30750D02*
X42000Y-30500D01*
X43250Y-30750D02*
X42250Y-30750D01*
X41500Y-30000D02*
X42000Y-30500D01*
X45000Y-29000D02*
X43500Y-30500D01*
X43500Y-30500D02*
X43250Y-30750D01*
X56500Y-24750D02*
X56500Y-23500D01*
X56250Y-25000D02*
X56500Y-24750D01*
X51500Y-44000D02*
X47000Y-48500D01*
X47000Y-48500D02*
X46500Y-48500D01*
X52000Y-44000D02*
X51500Y-44000D01*
X41500Y-49500D02*
X41500Y-49000D01*
X42000Y-48500D02*
X42500Y-48500D01*
X41500Y-49000D02*
X42000Y-48500D01*
X54500Y-43000D02*
X54500Y-43750D01*
X46500Y-48500D02*
X42500Y-48500D01*
X53250Y-44000D02*
X52000Y-44000D01*
X54250Y-44000D02*
X53250Y-44000D01*
X54500Y-43750D02*
X54250Y-44000D01*
G54D27*
X33000Y-26500D02*
X32000Y-26500D01*
X32000Y-26500D02*
X31000Y-25500D01*
X33000Y-27500D02*
X32000Y-27500D01*
X32000Y-27500D02*
X31000Y-28500D01*
G54D26*
X53000Y-67500D02*
X55000Y-67500D01*
X57500Y-49500D02*
X57500Y-51000D01*
X40000Y-61000D02*
X39500Y-60500D01*
X42000Y-61000D02*
X40000Y-61000D01*
X42250Y-60750D02*
X42000Y-61000D01*
X42250Y-58032D02*
X42250Y-60750D01*
X42532Y-57750D02*
X42250Y-58032D01*
X46750Y-57750D02*
X42532Y-57750D01*
X48250Y-56250D02*
X46750Y-57750D01*
X48250Y-55250D02*
X48250Y-56250D01*
X48500Y-55000D02*
X48250Y-55250D01*
X49500Y-54000D02*
X48500Y-55000D01*
X51500Y-52000D02*
X49500Y-54000D01*
X52250Y-51250D02*
X51500Y-52000D01*
X52750Y-51250D02*
X52250Y-51250D01*
X56250Y-51250D02*
X52750Y-51250D01*
X57250Y-51250D02*
X56250Y-51250D01*
X57500Y-51000D02*
X57250Y-51250D01*
G54D27*
X33000Y-31000D02*
X32000Y-31000D01*
X32000Y-31000D02*
X31000Y-30000D01*
G54D26*
X46750Y-48750D02*
X47250Y-48750D01*
X51500Y-44500D02*
X51750Y-44250D01*
X49500Y-46500D02*
X51500Y-44500D01*
X47250Y-48750D02*
X49500Y-46500D01*
X52250Y-44250D02*
X51750Y-44250D01*
X55500Y-43000D02*
X55500Y-44000D01*
X53500Y-44250D02*
X52250Y-44250D01*
X55250Y-44250D02*
X53500Y-44250D01*
X55500Y-44000D02*
X55250Y-44250D01*
X40000Y-52000D02*
X39500Y-51500D01*
X41250Y-52000D02*
X40000Y-52000D01*
X42000Y-52000D02*
X41250Y-52000D01*
X42250Y-51750D02*
X42000Y-52000D01*
X42250Y-50000D02*
X42250Y-51750D01*
X42250Y-49000D02*
X42250Y-50000D01*
X42500Y-48750D02*
X42250Y-49000D01*
X45500Y-48750D02*
X42500Y-48750D01*
X46750Y-48750D02*
X45500Y-48750D01*
G54D27*
X33000Y-32000D02*
X32000Y-32000D01*
X32000Y-32000D02*
X31000Y-33000D01*
X33000Y-35500D02*
X32000Y-35500D01*
X32000Y-35500D02*
X31000Y-34500D01*
X33000Y-36500D02*
X32000Y-36500D01*
X32000Y-36500D02*
X31000Y-37500D01*
G54D26*
X46000Y-55000D02*
X46250Y-54750D01*
X46250Y-54750D02*
X47750Y-54750D01*
X55500Y-49500D02*
X55500Y-50500D01*
X48500Y-54000D02*
X47750Y-54750D01*
X51000Y-51500D02*
X48500Y-54000D01*
X51750Y-50750D02*
X51000Y-51500D01*
X55250Y-50750D02*
X51750Y-50750D01*
X55500Y-50500D02*
X55250Y-50750D01*
X46000Y-55000D02*
X45000Y-56000D01*
G54D27*
X33000Y-40000D02*
X32000Y-40000D01*
X32000Y-40000D02*
X31000Y-39000D01*
X33000Y-41000D02*
X32000Y-41000D01*
X32000Y-41000D02*
X31000Y-42000D01*
G54D26*
X52500Y-44500D02*
X52000Y-44500D01*
X52000Y-44500D02*
X47000Y-49500D01*
X56500Y-43000D02*
X56500Y-44250D01*
X54250Y-44500D02*
X52500Y-44500D01*
X56250Y-44500D02*
X54250Y-44500D01*
X56500Y-44250D02*
X56250Y-44500D01*
X56250Y-25250D02*
X56500Y-25250D01*
X39500Y-32000D02*
X40000Y-32500D01*
X40000Y-32500D02*
X43750Y-32500D01*
X43750Y-32500D02*
X44000Y-32250D01*
X44000Y-32250D02*
X44000Y-32000D01*
X44000Y-32000D02*
X46250Y-29750D01*
X46250Y-29750D02*
X46750Y-29250D01*
X46750Y-29250D02*
X47000Y-29250D01*
X47000Y-29250D02*
X47750Y-28500D01*
X47750Y-28500D02*
X50500Y-25750D01*
X50500Y-25750D02*
X50750Y-25500D01*
X50750Y-25500D02*
X51000Y-25250D01*
X51000Y-25250D02*
X56250Y-25250D01*
X57500Y-24250D02*
X57500Y-23500D01*
X57250Y-24500D02*
X57500Y-24250D01*
X57000Y-24750D02*
X57250Y-24500D01*
X56500Y-25250D02*
X57000Y-24750D01*
X57500Y-30000D02*
X57500Y-30750D01*
X46000Y-35500D02*
X45000Y-36500D01*
X47500Y-35500D02*
X46000Y-35500D01*
X51500Y-31500D02*
X47500Y-35500D01*
X57250Y-31500D02*
X51500Y-31500D01*
X57500Y-31250D02*
X57250Y-31500D01*
X57500Y-30750D02*
X57500Y-31250D01*
X57500Y-36500D02*
X57500Y-37750D01*
X40000Y-47500D02*
X39500Y-47000D01*
X42000Y-47500D02*
X40000Y-47500D01*
X42250Y-47250D02*
X42000Y-47500D01*
X42250Y-45500D02*
X42250Y-47250D01*
X42250Y-44750D02*
X42250Y-45500D01*
X43500Y-43500D02*
X42250Y-44750D01*
X46750Y-43500D02*
X43500Y-43500D01*
X49000Y-41250D02*
X46750Y-43500D01*
X51250Y-39000D02*
X49000Y-41250D01*
X52000Y-38250D02*
X51250Y-39000D01*
X55000Y-38250D02*
X52000Y-38250D01*
X56500Y-38250D02*
X55000Y-38250D01*
X57250Y-38250D02*
X56500Y-38250D01*
X57500Y-38000D02*
X57250Y-38250D01*
X57500Y-37750D02*
X57500Y-38000D01*
X48250Y-48750D02*
X47750Y-49250D01*
X47750Y-49750D02*
X47000Y-50500D01*
X47750Y-49250D02*
X47750Y-49750D01*
X57500Y-43000D02*
X57500Y-44500D01*
X46000Y-50500D02*
X45000Y-51500D01*
X47000Y-50500D02*
X46000Y-50500D01*
X51750Y-45250D02*
X48250Y-48750D01*
X52250Y-44750D02*
X51750Y-45250D01*
X55250Y-44750D02*
X52250Y-44750D01*
X57250Y-44750D02*
X55250Y-44750D01*
X57500Y-44500D02*
X57250Y-44750D01*
G54D27*
X33000Y-55000D02*
X32000Y-55000D01*
X32000Y-55000D02*
X31000Y-54000D01*
X33000Y-56000D02*
X32000Y-56000D01*
X32000Y-56000D02*
X31000Y-57000D01*
X33000Y-59500D02*
X32000Y-59500D01*
X32000Y-59500D02*
X31000Y-58500D01*
X33000Y-60500D02*
X32000Y-60500D01*
X32000Y-60500D02*
X31000Y-61500D01*
G54D26*
X52500Y-30000D02*
X48500Y-30000D01*
X48500Y-30000D02*
X47500Y-31000D01*
X45000Y-32000D02*
X46000Y-31000D01*
X46000Y-31000D02*
X47500Y-31000D01*
G54D27*
X33000Y-51500D02*
X32000Y-51500D01*
X32000Y-51500D02*
X31000Y-52500D01*
X33000Y-46000D02*
X32000Y-46000D01*
X32000Y-46000D02*
X31000Y-45000D01*
X33000Y-47000D02*
X32000Y-47000D01*
X32000Y-47000D02*
X31000Y-48000D01*
X33000Y-50500D02*
X32000Y-50500D01*
X32000Y-50500D02*
X31000Y-49500D01*
X35000Y-25500D02*
X36000Y-26500D01*
X40500Y-26500D02*
X41500Y-27500D01*
X36000Y-26500D02*
X40500Y-26500D01*
G54D26*
X63500Y-23500D02*
X62500Y-24500D01*
X55500Y-26000D02*
X55500Y-26500D01*
X55750Y-25750D02*
X55500Y-26000D01*
X56250Y-25750D02*
X55750Y-25750D01*
X56500Y-25500D02*
X56250Y-25750D01*
X56750Y-25500D02*
X56500Y-25500D01*
X57250Y-25000D02*
X56750Y-25500D01*
X59000Y-25000D02*
X57250Y-25000D01*
X59500Y-24500D02*
X59000Y-25000D01*
X62500Y-24500D02*
X59500Y-24500D01*
X66500Y-24500D02*
X65000Y-24500D01*
X57500Y-25750D02*
X57500Y-26500D01*
X57750Y-25500D02*
X57500Y-25750D01*
X58750Y-25500D02*
X57750Y-25500D01*
X59500Y-25500D02*
X58750Y-25500D01*
X60000Y-25000D02*
X59500Y-25500D01*
X63750Y-25000D02*
X60000Y-25000D01*
X64500Y-25000D02*
X63750Y-25000D01*
X65000Y-24500D02*
X64500Y-25000D01*
G54D27*
X35000Y-28500D02*
X46000Y-28500D01*
X46000Y-28500D02*
X47000Y-27500D01*
G54D26*
X54500Y-26500D02*
X55250Y-27250D01*
X63000Y-25500D02*
X63500Y-25500D01*
X61250Y-27250D02*
X63000Y-25500D01*
X55250Y-27250D02*
X61250Y-27250D01*
X63500Y-24500D02*
X63000Y-24500D01*
X56500Y-26000D02*
X56500Y-26500D01*
X56750Y-25750D02*
X56500Y-26000D01*
X57000Y-25750D02*
X56750Y-25750D01*
X57500Y-25250D02*
X57000Y-25750D01*
X58500Y-25250D02*
X57500Y-25250D01*
X59250Y-25250D02*
X58500Y-25250D01*
X59750Y-24750D02*
X59250Y-25250D01*
X61799Y-24750D02*
X59750Y-24750D01*
X62750Y-24750D02*
X61799Y-24750D01*
X63000Y-24500D02*
X62750Y-24750D01*
G54D27*
X35000Y-30000D02*
X36000Y-31000D01*
X40500Y-31000D02*
X41500Y-32000D01*
X36000Y-31000D02*
X40500Y-31000D01*
G54D26*
X52500Y-26500D02*
X53750Y-27750D01*
X62750Y-27750D02*
X63000Y-27500D01*
X53750Y-27750D02*
X62750Y-27750D01*
X63000Y-27500D02*
X63500Y-27500D01*
X53500Y-26500D02*
X54500Y-27500D01*
X62000Y-27500D02*
X63000Y-26500D01*
X54500Y-27500D02*
X62000Y-27500D01*
X63000Y-26500D02*
X63500Y-26500D01*
G54D27*
X35000Y-33000D02*
X46000Y-33000D01*
X46000Y-33000D02*
X47000Y-32000D01*
G54D26*
X59500Y-32000D02*
X62000Y-29500D01*
X62000Y-29500D02*
X63500Y-29500D01*
X53500Y-33000D02*
X53500Y-32500D01*
X58000Y-32000D02*
X59500Y-32000D01*
X56250Y-32000D02*
X58000Y-32000D01*
X54000Y-32000D02*
X56250Y-32000D01*
X53500Y-32500D02*
X54000Y-32000D01*
X52500Y-33000D02*
X52500Y-32500D01*
X62500Y-28500D02*
X63500Y-28500D01*
X59250Y-31750D02*
X62500Y-28500D01*
X53250Y-31750D02*
X59250Y-31750D01*
X52500Y-32500D02*
X53250Y-31750D01*
G54D27*
X35000Y-34500D02*
X36000Y-35500D01*
X40500Y-35500D02*
X41500Y-36500D01*
X36000Y-35500D02*
X40500Y-35500D01*
G54D26*
X63500Y-34000D02*
X61500Y-34000D01*
X57500Y-33500D02*
X57500Y-33000D01*
X58000Y-34000D02*
X57500Y-33500D01*
X61500Y-34000D02*
X58000Y-34000D01*
X66500Y-35000D02*
X65500Y-35000D01*
X56500Y-33500D02*
X56500Y-33000D01*
X57500Y-34500D02*
X56500Y-33500D01*
X60250Y-34500D02*
X57500Y-34500D01*
X63250Y-34500D02*
X60250Y-34500D01*
X65000Y-34500D02*
X63250Y-34500D01*
X65500Y-35000D02*
X65000Y-34500D01*
G54D27*
X35000Y-37500D02*
X46000Y-37500D01*
X46000Y-37500D02*
X47000Y-36500D01*
G54D26*
X63500Y-36000D02*
X63000Y-36000D01*
X54500Y-33500D02*
X54500Y-33000D01*
X56500Y-35500D02*
X54500Y-33500D01*
X62500Y-35500D02*
X56500Y-35500D01*
X63000Y-36000D02*
X62500Y-35500D01*
X63500Y-35000D02*
X57000Y-35000D01*
X55500Y-33500D02*
X55500Y-33000D01*
X57000Y-35000D02*
X55500Y-33500D01*
G54D27*
X35000Y-39000D02*
X36000Y-40000D01*
X40500Y-40000D02*
X41500Y-41000D01*
X36000Y-40000D02*
X40500Y-40000D01*
G54D26*
X53500Y-39500D02*
X53500Y-39000D01*
X63000Y-38000D02*
X63500Y-38000D01*
X62250Y-38750D02*
X63000Y-38000D01*
X53750Y-38750D02*
X62250Y-38750D01*
X53500Y-39000D02*
X53750Y-38750D01*
X52500Y-39500D02*
X52500Y-39000D01*
X63000Y-37000D02*
X63500Y-37000D01*
X61500Y-38500D02*
X63000Y-37000D01*
X53000Y-38500D02*
X61500Y-38500D01*
X52500Y-39000D02*
X53000Y-38500D01*
G54D27*
X35000Y-42000D02*
X46000Y-42000D01*
X46000Y-42000D02*
X47000Y-41000D01*
G54D26*
X56500Y-39500D02*
X56500Y-40000D01*
X63000Y-40000D02*
X63500Y-40000D01*
X62750Y-40250D02*
X63000Y-40000D01*
X59000Y-40250D02*
X62750Y-40250D01*
X56750Y-40250D02*
X59000Y-40250D01*
X56500Y-40000D02*
X56750Y-40250D01*
X57500Y-39500D02*
X57500Y-39750D01*
X63000Y-39000D02*
X63500Y-39000D01*
X62000Y-40000D02*
X63000Y-39000D01*
X57750Y-40000D02*
X62000Y-40000D01*
X57500Y-39750D02*
X57750Y-40000D01*
G54D27*
X35000Y-45000D02*
X36000Y-46000D01*
X40500Y-46000D02*
X41500Y-47000D01*
X36000Y-46000D02*
X40500Y-46000D01*
G54D26*
X54500Y-40500D02*
X54750Y-40750D01*
X58750Y-40750D02*
X59000Y-41000D01*
X54750Y-40750D02*
X58750Y-40750D01*
X54500Y-40250D02*
X54500Y-40500D01*
X62500Y-44500D02*
X63500Y-44500D01*
X59000Y-41000D02*
X62500Y-44500D01*
X54500Y-40250D02*
X54500Y-39500D01*
X55500Y-40250D02*
X55750Y-40500D01*
X59000Y-40500D02*
X59250Y-40750D01*
X55750Y-40500D02*
X59000Y-40500D01*
X55500Y-39500D02*
X55500Y-40250D01*
X62250Y-43750D02*
X63250Y-43750D01*
X59250Y-40750D02*
X62250Y-43750D01*
X66500Y-45500D02*
X65500Y-45500D01*
X64500Y-43750D02*
X63250Y-43750D01*
X65000Y-44250D02*
X64500Y-43750D01*
X65000Y-45000D02*
X65000Y-44250D01*
X65500Y-45500D02*
X65000Y-45000D01*
G54D27*
X35000Y-48000D02*
X46000Y-48000D01*
X46000Y-48000D02*
X47000Y-47000D01*
G54D26*
X53500Y-46000D02*
X53500Y-45500D01*
X63000Y-46500D02*
X63500Y-46500D01*
X61750Y-45250D02*
X63000Y-46500D01*
X53750Y-45250D02*
X61750Y-45250D01*
X53500Y-45500D02*
X53750Y-45250D01*
X52500Y-46000D02*
X52500Y-45250D01*
X63000Y-45500D02*
X63500Y-45500D01*
X62500Y-45000D02*
X63000Y-45500D01*
X52750Y-45000D02*
X62500Y-45000D01*
X52500Y-45250D02*
X52750Y-45000D01*
G54D27*
X35000Y-49500D02*
X36000Y-50500D01*
X40500Y-50500D02*
X41500Y-51500D01*
X36000Y-50500D02*
X40500Y-50500D01*
G54D26*
X63000Y-48500D02*
X61500Y-47000D01*
X56500Y-46750D02*
X56500Y-46500D01*
X56750Y-47000D02*
X56500Y-46750D01*
X59000Y-47000D02*
X56750Y-47000D01*
X61500Y-47000D02*
X59000Y-47000D01*
X63500Y-48500D02*
X63000Y-48500D01*
X56500Y-46500D02*
X56500Y-46000D01*
X63500Y-47500D02*
X63000Y-47500D01*
X57750Y-46750D02*
X57500Y-46500D01*
X62250Y-46750D02*
X57750Y-46750D01*
X63000Y-47500D02*
X62250Y-46750D01*
X57500Y-46500D02*
X57500Y-46000D01*
G54D27*
X35000Y-52500D02*
X46000Y-52500D01*
X46000Y-52500D02*
X47000Y-51500D01*
G54D26*
X63500Y-50500D02*
X63000Y-50500D01*
X54500Y-47250D02*
X54500Y-46000D01*
X54750Y-47500D02*
X54500Y-47250D01*
X57750Y-47500D02*
X54750Y-47500D01*
X60000Y-47500D02*
X57750Y-47500D01*
X63000Y-50500D02*
X60000Y-47500D01*
X63500Y-49500D02*
X63000Y-49500D01*
X55500Y-47000D02*
X55500Y-46000D01*
X55750Y-47250D02*
X55500Y-47000D01*
X59750Y-47250D02*
X55750Y-47250D01*
X60750Y-47250D02*
X59750Y-47250D01*
X63000Y-49500D02*
X60750Y-47250D01*
G54D27*
X35000Y-54000D02*
X36000Y-55000D01*
X40500Y-55000D02*
X41500Y-56000D01*
X36000Y-55000D02*
X40500Y-55000D01*
G54D26*
X63500Y-55000D02*
X63250Y-55000D01*
X56500Y-53000D02*
X56500Y-52500D01*
X56750Y-53250D02*
X56500Y-53000D01*
X61500Y-53250D02*
X56750Y-53250D01*
X63250Y-55000D02*
X61500Y-53250D01*
X66500Y-56000D02*
X65750Y-56000D01*
X57500Y-52750D02*
X57500Y-52500D01*
X57750Y-53000D02*
X57500Y-52750D01*
X61750Y-53000D02*
X57750Y-53000D01*
X63000Y-54250D02*
X61750Y-53000D01*
X64750Y-54250D02*
X63000Y-54250D01*
X65000Y-54500D02*
X64750Y-54250D01*
X65000Y-55250D02*
X65000Y-54500D01*
X65750Y-56000D02*
X65000Y-55250D01*
G54D27*
X35000Y-57000D02*
X46000Y-57000D01*
X46000Y-57000D02*
X47000Y-56000D01*
G54D26*
X63500Y-57000D02*
X62500Y-56000D01*
X54500Y-53500D02*
X54500Y-52500D01*
X54750Y-53750D02*
X54500Y-53500D01*
X58750Y-53750D02*
X54750Y-53750D01*
X60250Y-53750D02*
X58750Y-53750D01*
X60500Y-54000D02*
X60250Y-53750D01*
X62500Y-56000D02*
X60500Y-54000D01*
X63500Y-56000D02*
X62250Y-54750D01*
X55500Y-53250D02*
X55500Y-52500D01*
X55750Y-53500D02*
X55500Y-53250D01*
X61000Y-53500D02*
X55750Y-53500D01*
X62250Y-54750D02*
X61000Y-53500D01*
G54D27*
X35000Y-58500D02*
X36000Y-59500D01*
X40500Y-59500D02*
X41500Y-60500D01*
X36000Y-59500D02*
X40500Y-59500D01*
G54D26*
X63500Y-59000D02*
X62000Y-57500D01*
X52500Y-54000D02*
X52500Y-52500D01*
X52750Y-54250D02*
X52500Y-54000D01*
X53500Y-54250D02*
X52750Y-54250D01*
X56250Y-54250D02*
X53500Y-54250D01*
X58750Y-54250D02*
X56250Y-54250D01*
X59750Y-55250D02*
X58750Y-54250D01*
X62000Y-57500D02*
X59750Y-55250D01*
X63500Y-58000D02*
X62250Y-56750D01*
X53500Y-53750D02*
X53500Y-52500D01*
X53750Y-54000D02*
X53500Y-53750D01*
X57000Y-54000D02*
X53750Y-54000D01*
X59500Y-54000D02*
X57000Y-54000D01*
X62250Y-56750D02*
X59500Y-54000D01*
G54D27*
X35000Y-61500D02*
X46000Y-61500D01*
X46000Y-61500D02*
X47000Y-60500D01*
G54D26*
X63500Y-61000D02*
X62750Y-60250D01*
X53500Y-60000D02*
X52500Y-59000D01*
X60750Y-60000D02*
X53500Y-60000D01*
X62500Y-60000D02*
X60750Y-60000D01*
X62750Y-60250D02*
X62500Y-60000D01*
X53500Y-59000D02*
X53500Y-59250D01*
X63250Y-59750D02*
X63500Y-60000D01*
X54000Y-59750D02*
X63250Y-59750D01*
X53500Y-59250D02*
X54000Y-59750D01*
M02*
