G04 (created by PCBNEW (2013-07-07 BZR 4022)-stable) date Mon 29 Aug 2022 01:34:01 AM CDT*
%MOIN*%
G04 Gerber Fmt 3.4, Leading zero omitted, Abs format*
%FSLAX34Y34*%
G01*
G70*
G90*
G04 APERTURE LIST*
%ADD10C,0.00590551*%
%ADD11R,0.1035X0.069*%
%ADD12O,0.1035X0.069*%
%ADD13R,0.059X0.059*%
%ADD14O,0.059X0.059*%
%ADD15R,0.059X0.0885*%
%ADD16O,0.059X0.0885*%
%ADD17R,0.0885X0.059*%
%ADD18O,0.0885X0.059*%
%ADD19R,0.114X0.059*%
%ADD20R,0.069X0.069*%
%ADD21O,0.069X0.069*%
%ADD22R,0.079X0.079*%
%ADD23C,0.079*%
%ADD24C,0.23622*%
%ADD25C,0.059*%
G04 APERTURE END LIST*
G54D10*
G54D11*
X51827Y-67500D03*
G54D12*
X53172Y-67500D03*
G54D13*
X52500Y-61000D03*
G54D14*
X52500Y-62000D03*
G54D13*
X52500Y-65000D03*
G54D14*
X52500Y-64000D03*
G54D15*
X52500Y-26352D03*
G54D16*
X53500Y-26352D03*
X54500Y-26352D03*
X55500Y-26352D03*
X57500Y-23647D03*
X56500Y-23647D03*
X55500Y-23647D03*
X54500Y-23647D03*
X56500Y-26352D03*
X57500Y-26352D03*
X58500Y-26352D03*
X58500Y-23647D03*
X59500Y-23647D03*
X53500Y-23647D03*
X59500Y-26352D03*
X52500Y-23647D03*
G54D17*
X63647Y-55000D03*
G54D18*
X63647Y-56000D03*
X63647Y-57000D03*
X63647Y-58000D03*
X66352Y-60000D03*
X66352Y-59000D03*
X66352Y-58000D03*
X66352Y-57000D03*
X63647Y-59000D03*
X63647Y-60000D03*
X63647Y-61000D03*
X66352Y-61000D03*
X66352Y-62000D03*
X66352Y-56000D03*
X63647Y-62000D03*
X66352Y-55000D03*
G54D17*
X63647Y-44500D03*
G54D18*
X63647Y-45500D03*
X63647Y-46500D03*
X63647Y-47500D03*
X66352Y-49500D03*
X66352Y-48500D03*
X66352Y-47500D03*
X66352Y-46500D03*
X63647Y-48500D03*
X63647Y-49500D03*
X63647Y-50500D03*
X66352Y-50500D03*
X66352Y-51500D03*
X66352Y-45500D03*
X63647Y-51500D03*
X66352Y-44500D03*
G54D17*
X63647Y-34000D03*
G54D18*
X63647Y-35000D03*
X63647Y-36000D03*
X63647Y-37000D03*
X66352Y-39000D03*
X66352Y-38000D03*
X66352Y-37000D03*
X66352Y-36000D03*
X63647Y-38000D03*
X63647Y-39000D03*
X63647Y-40000D03*
X66352Y-40000D03*
X66352Y-41000D03*
X66352Y-35000D03*
X63647Y-41000D03*
X66352Y-34000D03*
G54D15*
X52500Y-58852D03*
G54D16*
X53500Y-58852D03*
X54500Y-58852D03*
X55500Y-58852D03*
X57500Y-56147D03*
X56500Y-56147D03*
X55500Y-56147D03*
X54500Y-56147D03*
X56500Y-58852D03*
X57500Y-58852D03*
X58500Y-58852D03*
X58500Y-56147D03*
X59500Y-56147D03*
X53500Y-56147D03*
X59500Y-58852D03*
X52500Y-56147D03*
G54D15*
X52500Y-52352D03*
G54D16*
X53500Y-52352D03*
X54500Y-52352D03*
X55500Y-52352D03*
X57500Y-49647D03*
X56500Y-49647D03*
X55500Y-49647D03*
X54500Y-49647D03*
X56500Y-52352D03*
X57500Y-52352D03*
X58500Y-52352D03*
X58500Y-49647D03*
X59500Y-49647D03*
X53500Y-49647D03*
X59500Y-52352D03*
X52500Y-49647D03*
G54D15*
X52500Y-45852D03*
G54D16*
X53500Y-45852D03*
X54500Y-45852D03*
X55500Y-45852D03*
X57500Y-43147D03*
X56500Y-43147D03*
X55500Y-43147D03*
X54500Y-43147D03*
X56500Y-45852D03*
X57500Y-45852D03*
X58500Y-45852D03*
X58500Y-43147D03*
X59500Y-43147D03*
X53500Y-43147D03*
X59500Y-45852D03*
X52500Y-43147D03*
G54D15*
X52500Y-39352D03*
G54D16*
X53500Y-39352D03*
X54500Y-39352D03*
X55500Y-39352D03*
X57500Y-36647D03*
X56500Y-36647D03*
X55500Y-36647D03*
X54500Y-36647D03*
X56500Y-39352D03*
X57500Y-39352D03*
X58500Y-39352D03*
X58500Y-36647D03*
X59500Y-36647D03*
X53500Y-36647D03*
X59500Y-39352D03*
X52500Y-36647D03*
G54D15*
X52500Y-32852D03*
G54D16*
X53500Y-32852D03*
X54500Y-32852D03*
X55500Y-32852D03*
X57500Y-30147D03*
X56500Y-30147D03*
X55500Y-30147D03*
X54500Y-30147D03*
X56500Y-32852D03*
X57500Y-32852D03*
X58500Y-32852D03*
X58500Y-30147D03*
X59500Y-30147D03*
X53500Y-30147D03*
X59500Y-32852D03*
X52500Y-30147D03*
G54D17*
X63647Y-23500D03*
G54D18*
X63647Y-24500D03*
X63647Y-25500D03*
X63647Y-26500D03*
X66352Y-28500D03*
X66352Y-27500D03*
X66352Y-26500D03*
X66352Y-25500D03*
X63647Y-27500D03*
X63647Y-28500D03*
X63647Y-29500D03*
X66352Y-29500D03*
X66352Y-30500D03*
X66352Y-24500D03*
X63647Y-30500D03*
X66352Y-23500D03*
G54D19*
X65725Y-22000D03*
X64275Y-22000D03*
X65725Y-32500D03*
X64275Y-32500D03*
X65725Y-43000D03*
X64275Y-43000D03*
X65725Y-53500D03*
X64275Y-53500D03*
G54D20*
X55000Y-62000D03*
G54D21*
X55000Y-63000D03*
X55000Y-64000D03*
G54D22*
X46000Y-65500D03*
G54D23*
X47000Y-65500D03*
G54D22*
X33000Y-55000D03*
G54D23*
X33000Y-56000D03*
G54D22*
X33000Y-59500D03*
G54D23*
X33000Y-60500D03*
G54D22*
X33000Y-46000D03*
G54D23*
X33000Y-47000D03*
G54D22*
X33000Y-50500D03*
G54D23*
X33000Y-51500D03*
G54D22*
X33000Y-35500D03*
G54D23*
X33000Y-36500D03*
G54D22*
X33000Y-40000D03*
G54D23*
X33000Y-41000D03*
G54D22*
X33000Y-26500D03*
G54D23*
X33000Y-27500D03*
G54D22*
X33000Y-31000D03*
G54D23*
X33000Y-32000D03*
G54D22*
X37500Y-21000D03*
G54D23*
X38500Y-21000D03*
G54D14*
X55000Y-67500D03*
X59000Y-67500D03*
G54D22*
X60000Y-65500D03*
G54D23*
X61000Y-65500D03*
X62000Y-65500D03*
G54D22*
X58500Y-20500D03*
G54D23*
X59500Y-20500D03*
X60500Y-20500D03*
G54D24*
X30750Y-18750D03*
X66250Y-18750D03*
X66250Y-67250D03*
X30750Y-67250D03*
G54D22*
X37500Y-65500D03*
G54D23*
X38500Y-65500D03*
G54D13*
X37500Y-27500D03*
G54D25*
X39500Y-27500D03*
X41500Y-27500D03*
X41500Y-25500D03*
X39500Y-25500D03*
X37500Y-25500D03*
G54D13*
X43000Y-27500D03*
G54D25*
X45000Y-27500D03*
X47000Y-27500D03*
X47000Y-25500D03*
X45000Y-25500D03*
X43000Y-25500D03*
G54D13*
X37500Y-32000D03*
G54D25*
X39500Y-32000D03*
X41500Y-32000D03*
X41500Y-30000D03*
X39500Y-30000D03*
X37500Y-30000D03*
G54D13*
X43000Y-32000D03*
G54D25*
X45000Y-32000D03*
X47000Y-32000D03*
X47000Y-30000D03*
X45000Y-30000D03*
X43000Y-30000D03*
G54D13*
X37500Y-36500D03*
G54D25*
X39500Y-36500D03*
X41500Y-36500D03*
X41500Y-34500D03*
X39500Y-34500D03*
X37500Y-34500D03*
G54D13*
X43000Y-36500D03*
G54D25*
X45000Y-36500D03*
X47000Y-36500D03*
X47000Y-34500D03*
X45000Y-34500D03*
X43000Y-34500D03*
G54D13*
X37500Y-41000D03*
G54D25*
X39500Y-41000D03*
X41500Y-41000D03*
X41500Y-39000D03*
X39500Y-39000D03*
X37500Y-39000D03*
G54D13*
X43000Y-41000D03*
G54D25*
X45000Y-41000D03*
X47000Y-41000D03*
X47000Y-39000D03*
X45000Y-39000D03*
X43000Y-39000D03*
G54D13*
X37500Y-47000D03*
G54D25*
X39500Y-47000D03*
X41500Y-47000D03*
X41500Y-45000D03*
X39500Y-45000D03*
X37500Y-45000D03*
G54D13*
X43000Y-47000D03*
G54D25*
X45000Y-47000D03*
X47000Y-47000D03*
X47000Y-45000D03*
X45000Y-45000D03*
X43000Y-45000D03*
G54D13*
X37500Y-51500D03*
G54D25*
X39500Y-51500D03*
X41500Y-51500D03*
X41500Y-49500D03*
X39500Y-49500D03*
X37500Y-49500D03*
G54D13*
X43000Y-51500D03*
G54D25*
X45000Y-51500D03*
X47000Y-51500D03*
X47000Y-49500D03*
X45000Y-49500D03*
X43000Y-49500D03*
G54D13*
X37500Y-56000D03*
G54D25*
X39500Y-56000D03*
X41500Y-56000D03*
X41500Y-54000D03*
X39500Y-54000D03*
X37500Y-54000D03*
G54D13*
X43000Y-56000D03*
G54D25*
X45000Y-56000D03*
X47000Y-56000D03*
X47000Y-54000D03*
X45000Y-54000D03*
X43000Y-54000D03*
G54D13*
X37500Y-60500D03*
G54D25*
X39500Y-60500D03*
X41500Y-60500D03*
X41500Y-58500D03*
X39500Y-58500D03*
X37500Y-58500D03*
G54D13*
X43000Y-60500D03*
G54D25*
X45000Y-60500D03*
X47000Y-60500D03*
X47000Y-58500D03*
X45000Y-58500D03*
X43000Y-58500D03*
G54D14*
X31000Y-25500D03*
X35000Y-25500D03*
X31000Y-28500D03*
X35000Y-28500D03*
X31000Y-30000D03*
X35000Y-30000D03*
X31000Y-33000D03*
X35000Y-33000D03*
X31000Y-34500D03*
X35000Y-34500D03*
X31000Y-37500D03*
X35000Y-37500D03*
X31000Y-39000D03*
X35000Y-39000D03*
X31000Y-42000D03*
X35000Y-42000D03*
X31000Y-45000D03*
X35000Y-45000D03*
X31000Y-48000D03*
X35000Y-48000D03*
X31000Y-49500D03*
X35000Y-49500D03*
X31000Y-52500D03*
X35000Y-52500D03*
X31000Y-54000D03*
X35000Y-54000D03*
X31000Y-57000D03*
X35000Y-57000D03*
X31000Y-58500D03*
X35000Y-58500D03*
X31000Y-61500D03*
X35000Y-61500D03*
M02*
