M48
;DRILL file {Pcbnew (2013-07-07 BZR 4022)-stable} date Mon 29 Aug 2022 01:34:04 AM CDT
;FORMAT={-:-/ absolute / inch / decimal}
FMAT,2
INCH,TZ
T1C0.032
T2C0.040
T3C0.056
T4C0.126
%
G90
G05
M72
T1
X3.1Y-2.55
X3.1Y-2.85
X3.1Y-3.
X3.1Y-3.3
X3.1Y-3.45
X3.1Y-3.75
X3.1Y-3.9
X3.1Y-4.2
X3.1Y-4.5
X3.1Y-4.8
X3.1Y-4.95
X3.1Y-5.25
X3.1Y-5.4
X3.1Y-5.7
X3.1Y-5.85
X3.1Y-6.15
X3.5Y-2.55
X3.5Y-2.85
X3.5Y-3.
X3.5Y-3.3
X3.5Y-3.45
X3.5Y-3.75
X3.5Y-3.9
X3.5Y-4.2
X3.5Y-4.5
X3.5Y-4.8
X3.5Y-4.95
X3.5Y-5.25
X3.5Y-5.4
X3.5Y-5.7
X3.5Y-5.85
X3.5Y-6.15
X3.75Y-2.55
X3.75Y-2.75
X3.75Y-3.
X3.75Y-3.2
X3.75Y-3.45
X3.75Y-3.65
X3.75Y-3.9
X3.75Y-4.1
X3.75Y-4.5
X3.75Y-4.7
X3.75Y-4.95
X3.75Y-5.15
X3.75Y-5.4
X3.75Y-5.6
X3.75Y-5.85
X3.75Y-6.05
X3.95Y-2.55
X3.95Y-2.75
X3.95Y-3.
X3.95Y-3.2
X3.95Y-3.45
X3.95Y-3.65
X3.95Y-3.9
X3.95Y-4.1
X3.95Y-4.5
X3.95Y-4.7
X3.95Y-4.95
X3.95Y-5.15
X3.95Y-5.4
X3.95Y-5.6
X3.95Y-5.85
X3.95Y-6.05
X4.15Y-2.55
X4.15Y-2.75
X4.15Y-3.
X4.15Y-3.2
X4.15Y-3.45
X4.15Y-3.65
X4.15Y-3.9
X4.15Y-4.1
X4.15Y-4.5
X4.15Y-4.7
X4.15Y-4.95
X4.15Y-5.15
X4.15Y-5.4
X4.15Y-5.6
X4.15Y-5.85
X4.15Y-6.05
X4.3Y-2.55
X4.3Y-2.75
X4.3Y-3.
X4.3Y-3.2
X4.3Y-3.45
X4.3Y-3.65
X4.3Y-3.9
X4.3Y-4.1
X4.3Y-4.5
X4.3Y-4.7
X4.3Y-4.95
X4.3Y-5.15
X4.3Y-5.4
X4.3Y-5.6
X4.3Y-5.85
X4.3Y-6.05
X4.5Y-2.55
X4.5Y-2.75
X4.5Y-3.
X4.5Y-3.2
X4.5Y-3.45
X4.5Y-3.65
X4.5Y-3.9
X4.5Y-4.1
X4.5Y-4.5
X4.5Y-4.7
X4.5Y-4.95
X4.5Y-5.15
X4.5Y-5.4
X4.5Y-5.6
X4.5Y-5.85
X4.5Y-6.05
X4.7Y-2.55
X4.7Y-2.75
X4.7Y-3.
X4.7Y-3.2
X4.7Y-3.45
X4.7Y-3.65
X4.7Y-3.9
X4.7Y-4.1
X4.7Y-4.5
X4.7Y-4.7
X4.7Y-4.95
X4.7Y-5.15
X4.7Y-5.4
X4.7Y-5.6
X4.7Y-5.85
X4.7Y-6.05
X5.25Y-2.35
X5.25Y-2.65
X5.25Y-3.
X5.25Y-3.3
X5.25Y-3.65
X5.25Y-3.95
X5.25Y-4.3
X5.25Y-4.6
X5.25Y-4.95
X5.25Y-5.25
X5.25Y-5.6
X5.25Y-5.9
X5.25Y-6.1
X5.25Y-6.2
X5.25Y-6.4
X5.25Y-6.5
X5.35Y-2.35
X5.35Y-2.65
X5.35Y-3.
X5.35Y-3.3
X5.35Y-3.65
X5.35Y-3.95
X5.35Y-4.3
X5.35Y-4.6
X5.35Y-4.95
X5.35Y-5.25
X5.35Y-5.6
X5.35Y-5.9
X5.45Y-2.35
X5.45Y-2.65
X5.45Y-3.
X5.45Y-3.3
X5.45Y-3.65
X5.45Y-3.95
X5.45Y-4.3
X5.45Y-4.6
X5.45Y-4.95
X5.45Y-5.25
X5.45Y-5.6
X5.45Y-5.9
X5.5Y-6.75
X5.55Y-2.35
X5.55Y-2.65
X5.55Y-3.
X5.55Y-3.3
X5.55Y-3.65
X5.55Y-3.95
X5.55Y-4.3
X5.55Y-4.6
X5.55Y-4.95
X5.55Y-5.25
X5.55Y-5.6
X5.55Y-5.9
X5.65Y-2.35
X5.65Y-2.65
X5.65Y-3.
X5.65Y-3.3
X5.65Y-3.65
X5.65Y-3.95
X5.65Y-4.3
X5.65Y-4.6
X5.65Y-4.95
X5.65Y-5.25
X5.65Y-5.6
X5.65Y-5.9
X5.75Y-2.35
X5.75Y-2.65
X5.75Y-3.
X5.75Y-3.3
X5.75Y-3.65
X5.75Y-3.95
X5.75Y-4.3
X5.75Y-4.6
X5.75Y-4.95
X5.75Y-5.25
X5.75Y-5.6
X5.75Y-5.9
X5.85Y-2.35
X5.85Y-2.65
X5.85Y-3.
X5.85Y-3.3
X5.85Y-3.65
X5.85Y-3.95
X5.85Y-4.3
X5.85Y-4.6
X5.85Y-4.95
X5.85Y-5.25
X5.85Y-5.6
X5.85Y-5.9
X5.9Y-6.75
X5.95Y-2.35
X5.95Y-2.65
X5.95Y-3.
X5.95Y-3.3
X5.95Y-3.65
X5.95Y-3.95
X5.95Y-4.3
X5.95Y-4.6
X5.95Y-4.95
X5.95Y-5.25
X5.95Y-5.6
X5.95Y-5.9
X6.35Y-2.35
X6.35Y-2.45
X6.35Y-2.55
X6.35Y-2.65
X6.35Y-2.75
X6.35Y-2.85
X6.35Y-2.95
X6.35Y-3.05
X6.35Y-3.4
X6.35Y-3.5
X6.35Y-3.6
X6.35Y-3.7
X6.35Y-3.8
X6.35Y-3.9
X6.35Y-4.
X6.35Y-4.1
X6.35Y-4.45
X6.35Y-4.55
X6.35Y-4.65
X6.35Y-4.75
X6.35Y-4.85
X6.35Y-4.95
X6.35Y-5.05
X6.35Y-5.15
X6.35Y-5.5
X6.35Y-5.6
X6.35Y-5.7
X6.35Y-5.8
X6.35Y-5.9
X6.35Y-6.
X6.35Y-6.1
X6.35Y-6.2
X6.4Y-2.2
X6.4Y-3.25
X6.4Y-4.3
X6.4Y-5.35
X6.6Y-2.2
X6.6Y-3.25
X6.6Y-4.3
X6.6Y-5.35
X6.65Y-2.35
X6.65Y-2.45
X6.65Y-2.55
X6.65Y-2.65
X6.65Y-2.75
X6.65Y-2.85
X6.65Y-2.95
X6.65Y-3.05
X6.65Y-3.4
X6.65Y-3.5
X6.65Y-3.6
X6.65Y-3.7
X6.65Y-3.8
X6.65Y-3.9
X6.65Y-4.
X6.65Y-4.1
X6.65Y-4.45
X6.65Y-4.55
X6.65Y-4.65
X6.65Y-4.75
X6.65Y-4.85
X6.65Y-4.95
X6.65Y-5.05
X6.65Y-5.15
X6.65Y-5.5
X6.65Y-5.6
X6.65Y-5.7
X6.65Y-5.8
X6.65Y-5.9
X6.65Y-6.
X6.65Y-6.1
X6.65Y-6.2
T2
X5.2Y-6.75
X5.3Y-6.75
X5.5Y-6.2
X5.5Y-6.3
X5.5Y-6.4
T3
X3.3Y-2.65
X3.3Y-2.75
X3.3Y-3.1
X3.3Y-3.2
X3.3Y-3.55
X3.3Y-3.65
X3.3Y-4.
X3.3Y-4.1
X3.3Y-4.6
X3.3Y-4.7
X3.3Y-5.05
X3.3Y-5.15
X3.3Y-5.5
X3.3Y-5.6
X3.3Y-5.95
X3.3Y-6.05
X3.75Y-2.1
X3.75Y-6.55
X3.85Y-2.1
X3.85Y-6.55
X4.6Y-6.55
X4.7Y-6.55
X5.85Y-2.05
X5.95Y-2.05
X6.Y-6.55
X6.05Y-2.05
X6.1Y-6.55
X6.2Y-6.55
T4
X3.075Y-1.875
X3.075Y-6.725
X6.625Y-1.875
X6.625Y-6.725
T0
M30
