G04 (created by PCBNEW (2013-07-07 BZR 4022)-stable) date Mon 29 Aug 2022 01:34:01 AM CDT*
%MOIN*%
G04 Gerber Fmt 3.4, Leading zero omitted, Abs format*
%FSLAX34Y34*%
G01*
G70*
G90*
G04 APERTURE LIST*
%ADD10C,0.00590551*%
%ADD11R,0.1035X0.069*%
%ADD12O,0.1035X0.069*%
%ADD13R,0.059X0.059*%
%ADD14O,0.059X0.059*%
%ADD15R,0.059X0.0885*%
%ADD16O,0.059X0.0885*%
%ADD17R,0.0885X0.059*%
%ADD18O,0.0885X0.059*%
%ADD19R,0.114X0.059*%
%ADD20R,0.069X0.069*%
%ADD21O,0.069X0.069*%
%ADD22R,0.079X0.079*%
%ADD23C,0.079*%
%ADD24C,0.23622*%
%ADD25C,0.059*%
%ADD26C,0.04*%
%ADD27C,0.01*%
%ADD28C,0.02*%
G04 APERTURE END LIST*
G54D10*
G54D11*
X51827Y-67500D03*
G54D12*
X53172Y-67500D03*
G54D13*
X52500Y-61000D03*
G54D14*
X52500Y-62000D03*
G54D13*
X52500Y-65000D03*
G54D14*
X52500Y-64000D03*
G54D15*
X52500Y-26352D03*
G54D16*
X53500Y-26352D03*
X54500Y-26352D03*
X55500Y-26352D03*
X57500Y-23647D03*
X56500Y-23647D03*
X55500Y-23647D03*
X54500Y-23647D03*
X56500Y-26352D03*
X57500Y-26352D03*
X58500Y-26352D03*
X58500Y-23647D03*
X59500Y-23647D03*
X53500Y-23647D03*
X59500Y-26352D03*
X52500Y-23647D03*
G54D17*
X63647Y-55000D03*
G54D18*
X63647Y-56000D03*
X63647Y-57000D03*
X63647Y-58000D03*
X66352Y-60000D03*
X66352Y-59000D03*
X66352Y-58000D03*
X66352Y-57000D03*
X63647Y-59000D03*
X63647Y-60000D03*
X63647Y-61000D03*
X66352Y-61000D03*
X66352Y-62000D03*
X66352Y-56000D03*
X63647Y-62000D03*
X66352Y-55000D03*
G54D17*
X63647Y-44500D03*
G54D18*
X63647Y-45500D03*
X63647Y-46500D03*
X63647Y-47500D03*
X66352Y-49500D03*
X66352Y-48500D03*
X66352Y-47500D03*
X66352Y-46500D03*
X63647Y-48500D03*
X63647Y-49500D03*
X63647Y-50500D03*
X66352Y-50500D03*
X66352Y-51500D03*
X66352Y-45500D03*
X63647Y-51500D03*
X66352Y-44500D03*
G54D17*
X63647Y-34000D03*
G54D18*
X63647Y-35000D03*
X63647Y-36000D03*
X63647Y-37000D03*
X66352Y-39000D03*
X66352Y-38000D03*
X66352Y-37000D03*
X66352Y-36000D03*
X63647Y-38000D03*
X63647Y-39000D03*
X63647Y-40000D03*
X66352Y-40000D03*
X66352Y-41000D03*
X66352Y-35000D03*
X63647Y-41000D03*
X66352Y-34000D03*
G54D15*
X52500Y-58852D03*
G54D16*
X53500Y-58852D03*
X54500Y-58852D03*
X55500Y-58852D03*
X57500Y-56147D03*
X56500Y-56147D03*
X55500Y-56147D03*
X54500Y-56147D03*
X56500Y-58852D03*
X57500Y-58852D03*
X58500Y-58852D03*
X58500Y-56147D03*
X59500Y-56147D03*
X53500Y-56147D03*
X59500Y-58852D03*
X52500Y-56147D03*
G54D15*
X52500Y-52352D03*
G54D16*
X53500Y-52352D03*
X54500Y-52352D03*
X55500Y-52352D03*
X57500Y-49647D03*
X56500Y-49647D03*
X55500Y-49647D03*
X54500Y-49647D03*
X56500Y-52352D03*
X57500Y-52352D03*
X58500Y-52352D03*
X58500Y-49647D03*
X59500Y-49647D03*
X53500Y-49647D03*
X59500Y-52352D03*
X52500Y-49647D03*
G54D15*
X52500Y-45852D03*
G54D16*
X53500Y-45852D03*
X54500Y-45852D03*
X55500Y-45852D03*
X57500Y-43147D03*
X56500Y-43147D03*
X55500Y-43147D03*
X54500Y-43147D03*
X56500Y-45852D03*
X57500Y-45852D03*
X58500Y-45852D03*
X58500Y-43147D03*
X59500Y-43147D03*
X53500Y-43147D03*
X59500Y-45852D03*
X52500Y-43147D03*
G54D15*
X52500Y-39352D03*
G54D16*
X53500Y-39352D03*
X54500Y-39352D03*
X55500Y-39352D03*
X57500Y-36647D03*
X56500Y-36647D03*
X55500Y-36647D03*
X54500Y-36647D03*
X56500Y-39352D03*
X57500Y-39352D03*
X58500Y-39352D03*
X58500Y-36647D03*
X59500Y-36647D03*
X53500Y-36647D03*
X59500Y-39352D03*
X52500Y-36647D03*
G54D15*
X52500Y-32852D03*
G54D16*
X53500Y-32852D03*
X54500Y-32852D03*
X55500Y-32852D03*
X57500Y-30147D03*
X56500Y-30147D03*
X55500Y-30147D03*
X54500Y-30147D03*
X56500Y-32852D03*
X57500Y-32852D03*
X58500Y-32852D03*
X58500Y-30147D03*
X59500Y-30147D03*
X53500Y-30147D03*
X59500Y-32852D03*
X52500Y-30147D03*
G54D17*
X63647Y-23500D03*
G54D18*
X63647Y-24500D03*
X63647Y-25500D03*
X63647Y-26500D03*
X66352Y-28500D03*
X66352Y-27500D03*
X66352Y-26500D03*
X66352Y-25500D03*
X63647Y-27500D03*
X63647Y-28500D03*
X63647Y-29500D03*
X66352Y-29500D03*
X66352Y-30500D03*
X66352Y-24500D03*
X63647Y-30500D03*
X66352Y-23500D03*
G54D19*
X65725Y-22000D03*
X64275Y-22000D03*
X65725Y-32500D03*
X64275Y-32500D03*
X65725Y-43000D03*
X64275Y-43000D03*
X65725Y-53500D03*
X64275Y-53500D03*
G54D20*
X55000Y-62000D03*
G54D21*
X55000Y-63000D03*
X55000Y-64000D03*
G54D22*
X46000Y-65500D03*
G54D23*
X47000Y-65500D03*
G54D22*
X33000Y-55000D03*
G54D23*
X33000Y-56000D03*
G54D22*
X33000Y-59500D03*
G54D23*
X33000Y-60500D03*
G54D22*
X33000Y-46000D03*
G54D23*
X33000Y-47000D03*
G54D22*
X33000Y-50500D03*
G54D23*
X33000Y-51500D03*
G54D22*
X33000Y-35500D03*
G54D23*
X33000Y-36500D03*
G54D22*
X33000Y-40000D03*
G54D23*
X33000Y-41000D03*
G54D22*
X33000Y-26500D03*
G54D23*
X33000Y-27500D03*
G54D22*
X33000Y-31000D03*
G54D23*
X33000Y-32000D03*
G54D22*
X37500Y-21000D03*
G54D23*
X38500Y-21000D03*
G54D14*
X55000Y-67500D03*
X59000Y-67500D03*
G54D22*
X60000Y-65500D03*
G54D23*
X61000Y-65500D03*
X62000Y-65500D03*
G54D22*
X58500Y-20500D03*
G54D23*
X59500Y-20500D03*
X60500Y-20500D03*
G54D24*
X30750Y-18750D03*
X66250Y-18750D03*
X66250Y-67250D03*
X30750Y-67250D03*
G54D22*
X37500Y-65500D03*
G54D23*
X38500Y-65500D03*
G54D13*
X37500Y-27500D03*
G54D25*
X39500Y-27500D03*
X41500Y-27500D03*
X41500Y-25500D03*
X39500Y-25500D03*
X37500Y-25500D03*
G54D13*
X43000Y-27500D03*
G54D25*
X45000Y-27500D03*
X47000Y-27500D03*
X47000Y-25500D03*
X45000Y-25500D03*
X43000Y-25500D03*
G54D13*
X37500Y-32000D03*
G54D25*
X39500Y-32000D03*
X41500Y-32000D03*
X41500Y-30000D03*
X39500Y-30000D03*
X37500Y-30000D03*
G54D13*
X43000Y-32000D03*
G54D25*
X45000Y-32000D03*
X47000Y-32000D03*
X47000Y-30000D03*
X45000Y-30000D03*
X43000Y-30000D03*
G54D13*
X37500Y-36500D03*
G54D25*
X39500Y-36500D03*
X41500Y-36500D03*
X41500Y-34500D03*
X39500Y-34500D03*
X37500Y-34500D03*
G54D13*
X43000Y-36500D03*
G54D25*
X45000Y-36500D03*
X47000Y-36500D03*
X47000Y-34500D03*
X45000Y-34500D03*
X43000Y-34500D03*
G54D13*
X37500Y-41000D03*
G54D25*
X39500Y-41000D03*
X41500Y-41000D03*
X41500Y-39000D03*
X39500Y-39000D03*
X37500Y-39000D03*
G54D13*
X43000Y-41000D03*
G54D25*
X45000Y-41000D03*
X47000Y-41000D03*
X47000Y-39000D03*
X45000Y-39000D03*
X43000Y-39000D03*
G54D13*
X37500Y-47000D03*
G54D25*
X39500Y-47000D03*
X41500Y-47000D03*
X41500Y-45000D03*
X39500Y-45000D03*
X37500Y-45000D03*
G54D13*
X43000Y-47000D03*
G54D25*
X45000Y-47000D03*
X47000Y-47000D03*
X47000Y-45000D03*
X45000Y-45000D03*
X43000Y-45000D03*
G54D13*
X37500Y-51500D03*
G54D25*
X39500Y-51500D03*
X41500Y-51500D03*
X41500Y-49500D03*
X39500Y-49500D03*
X37500Y-49500D03*
G54D13*
X43000Y-51500D03*
G54D25*
X45000Y-51500D03*
X47000Y-51500D03*
X47000Y-49500D03*
X45000Y-49500D03*
X43000Y-49500D03*
G54D13*
X37500Y-56000D03*
G54D25*
X39500Y-56000D03*
X41500Y-56000D03*
X41500Y-54000D03*
X39500Y-54000D03*
X37500Y-54000D03*
G54D13*
X43000Y-56000D03*
G54D25*
X45000Y-56000D03*
X47000Y-56000D03*
X47000Y-54000D03*
X45000Y-54000D03*
X43000Y-54000D03*
G54D13*
X37500Y-60500D03*
G54D25*
X39500Y-60500D03*
X41500Y-60500D03*
X41500Y-58500D03*
X39500Y-58500D03*
X37500Y-58500D03*
G54D13*
X43000Y-60500D03*
G54D25*
X45000Y-60500D03*
X47000Y-60500D03*
X47000Y-58500D03*
X45000Y-58500D03*
X43000Y-58500D03*
G54D14*
X31000Y-25500D03*
X35000Y-25500D03*
X31000Y-28500D03*
X35000Y-28500D03*
X31000Y-30000D03*
X35000Y-30000D03*
X31000Y-33000D03*
X35000Y-33000D03*
X31000Y-34500D03*
X35000Y-34500D03*
X31000Y-37500D03*
X35000Y-37500D03*
X31000Y-39000D03*
X35000Y-39000D03*
X31000Y-42000D03*
X35000Y-42000D03*
X31000Y-45000D03*
X35000Y-45000D03*
X31000Y-48000D03*
X35000Y-48000D03*
X31000Y-49500D03*
X35000Y-49500D03*
X31000Y-52500D03*
X35000Y-52500D03*
X31000Y-54000D03*
X35000Y-54000D03*
X31000Y-57000D03*
X35000Y-57000D03*
X31000Y-58500D03*
X35000Y-58500D03*
X31000Y-61500D03*
X35000Y-61500D03*
G54D26*
X51500Y-55500D02*
X52000Y-55000D01*
X59500Y-55500D02*
X59500Y-56000D01*
X59000Y-55000D02*
X59500Y-55500D01*
X55500Y-55000D02*
X59000Y-55000D01*
X52000Y-55000D02*
X55500Y-55000D01*
X51500Y-49000D02*
X52000Y-48500D01*
X59500Y-49000D02*
X59500Y-49500D01*
X59000Y-48500D02*
X59500Y-49000D01*
X52000Y-48500D02*
X59000Y-48500D01*
X51500Y-42500D02*
X52000Y-42000D01*
X59500Y-42500D02*
X59500Y-43000D01*
X59000Y-42000D02*
X59500Y-42500D01*
X52000Y-42000D02*
X59000Y-42000D01*
X51500Y-36500D02*
X51500Y-36000D01*
X59500Y-36000D02*
X59500Y-36500D01*
X59000Y-35500D02*
X59500Y-36000D01*
X52000Y-35500D02*
X59000Y-35500D01*
X51500Y-36000D02*
X52000Y-35500D01*
X51500Y-29500D02*
X52000Y-29000D01*
X59500Y-29500D02*
X59500Y-30000D01*
X59000Y-29000D02*
X59500Y-29500D01*
X52000Y-29000D02*
X59000Y-29000D01*
X52500Y-61000D02*
X51500Y-60000D01*
X59000Y-22500D02*
X59500Y-23000D01*
X56000Y-22500D02*
X59000Y-22500D01*
X52000Y-22500D02*
X56000Y-22500D01*
X51500Y-23000D02*
X52000Y-22500D01*
X51500Y-58500D02*
X51500Y-55500D01*
X51500Y-55500D02*
X51500Y-49000D01*
X51500Y-49000D02*
X51500Y-42500D01*
X51500Y-42500D02*
X51500Y-36500D01*
X51500Y-36500D02*
X51500Y-29500D01*
X51500Y-29500D02*
X51500Y-23000D01*
X51500Y-60000D02*
X51500Y-58500D01*
X59500Y-23000D02*
X59500Y-23500D01*
X46000Y-65500D02*
X50500Y-61000D01*
X50500Y-61000D02*
X52500Y-61000D01*
X55000Y-62000D02*
X54000Y-61000D01*
X54000Y-61000D02*
X52500Y-61000D01*
X39500Y-58500D02*
X40500Y-59500D01*
X40500Y-59500D02*
X46000Y-59500D01*
X39500Y-54000D02*
X40500Y-55000D01*
X40500Y-55000D02*
X46000Y-55000D01*
X39500Y-49500D02*
X40500Y-50500D01*
X40500Y-50500D02*
X46000Y-50500D01*
X39500Y-45000D02*
X40500Y-46000D01*
X40500Y-46000D02*
X46000Y-46000D01*
X39500Y-39000D02*
X40500Y-40000D01*
X40500Y-40000D02*
X46000Y-40000D01*
X39500Y-34500D02*
X40500Y-35500D01*
X40500Y-35500D02*
X46000Y-35500D01*
X39500Y-30000D02*
X40500Y-31000D01*
X40500Y-31000D02*
X46000Y-31000D01*
X39500Y-25500D02*
X40500Y-26500D01*
X40500Y-26500D02*
X46000Y-26500D01*
X46000Y-31000D02*
X46000Y-26500D01*
X46000Y-26500D02*
X45000Y-25500D01*
X46000Y-35500D02*
X46000Y-31000D01*
X46000Y-31000D02*
X45000Y-30000D01*
X46000Y-40000D02*
X46000Y-35500D01*
X46000Y-35500D02*
X45000Y-34500D01*
X46000Y-46000D02*
X46000Y-40000D01*
X46000Y-40000D02*
X45000Y-39000D01*
X46000Y-50500D02*
X46000Y-46000D01*
X46000Y-46000D02*
X45000Y-45000D01*
X46000Y-55000D02*
X46000Y-50500D01*
X46000Y-50500D02*
X45000Y-49500D01*
X46000Y-59500D02*
X46000Y-55000D01*
X46000Y-55000D02*
X45000Y-54000D01*
X46000Y-65500D02*
X46000Y-59500D01*
X46000Y-59500D02*
X45000Y-58500D01*
X52500Y-65000D02*
X54000Y-65000D01*
X54000Y-65000D02*
X55000Y-64000D01*
G54D27*
X66500Y-29500D02*
X67000Y-29500D01*
X67000Y-29500D02*
X67500Y-30000D01*
X66500Y-40000D02*
X67000Y-40000D01*
X67000Y-40000D02*
X67500Y-40500D01*
X66500Y-50500D02*
X67000Y-50500D01*
X67000Y-50500D02*
X67500Y-51000D01*
X66500Y-61000D02*
X67000Y-61000D01*
X67000Y-61000D02*
X67500Y-61500D01*
G54D26*
X67500Y-33000D02*
X67500Y-30000D01*
X67500Y-30000D02*
X67500Y-22500D01*
X67000Y-22000D02*
X66000Y-22000D01*
X67500Y-22500D02*
X67000Y-22000D01*
X67500Y-43500D02*
X67500Y-40500D01*
X67500Y-40500D02*
X67500Y-33000D01*
X67000Y-32500D02*
X66000Y-32500D01*
X67500Y-33000D02*
X67000Y-32500D01*
X67500Y-54000D02*
X67500Y-51000D01*
X67500Y-51000D02*
X67500Y-43500D01*
X67000Y-43000D02*
X66000Y-43000D01*
X67500Y-43500D02*
X67000Y-43000D01*
X55000Y-64000D02*
X67000Y-64000D01*
X67000Y-64000D02*
X67500Y-63500D01*
X67500Y-63500D02*
X67500Y-61500D01*
X67000Y-53500D02*
X66000Y-53500D01*
X67500Y-54000D02*
X67000Y-53500D01*
X67500Y-61500D02*
X67500Y-54000D01*
X66000Y-22000D02*
X66000Y-23000D01*
X66000Y-23000D02*
X66500Y-23500D01*
X66000Y-32500D02*
X66000Y-33500D01*
X66000Y-33500D02*
X66500Y-34000D01*
X66000Y-43000D02*
X66000Y-44000D01*
X66000Y-44000D02*
X66500Y-44500D01*
X66000Y-53500D02*
X66000Y-54500D01*
X66000Y-54500D02*
X66500Y-55000D01*
X59500Y-59000D02*
X62000Y-59000D01*
X62000Y-59000D02*
X62500Y-59500D01*
X59500Y-52500D02*
X62000Y-52500D01*
X62000Y-52500D02*
X62500Y-53000D01*
X59500Y-46000D02*
X62000Y-46000D01*
X62000Y-46000D02*
X62500Y-46500D01*
X59500Y-39500D02*
X62000Y-39500D01*
X62000Y-39500D02*
X62500Y-40000D01*
X59500Y-33000D02*
X62000Y-33000D01*
X62000Y-33000D02*
X62500Y-33500D01*
X59500Y-26500D02*
X62000Y-26500D01*
X62000Y-26500D02*
X62500Y-27000D01*
X62500Y-62500D02*
X63000Y-62000D01*
X63000Y-62000D02*
X63500Y-62000D01*
X62500Y-62500D02*
X62500Y-59500D01*
X62500Y-59500D02*
X62500Y-56500D01*
X62000Y-63000D02*
X62500Y-62500D01*
X62500Y-56500D02*
X62500Y-54000D01*
X62500Y-33000D02*
X63000Y-32500D01*
X62500Y-43500D02*
X63000Y-43000D01*
X62500Y-54000D02*
X63000Y-53500D01*
X62500Y-52000D02*
X63000Y-51500D01*
X62500Y-41500D02*
X63000Y-41000D01*
X62500Y-31000D02*
X63000Y-30500D01*
X62500Y-54000D02*
X62500Y-53000D01*
X62500Y-53000D02*
X62500Y-52000D01*
X62500Y-52000D02*
X62500Y-50000D01*
X62500Y-50000D02*
X62500Y-46500D01*
X62500Y-46500D02*
X62500Y-43500D01*
X62500Y-43500D02*
X62500Y-41500D01*
X62500Y-41500D02*
X62500Y-40000D01*
X62500Y-40000D02*
X62500Y-37000D01*
X62500Y-37000D02*
X62500Y-33500D01*
X62500Y-33500D02*
X62500Y-33000D01*
X62500Y-33000D02*
X62500Y-31000D01*
X62500Y-31000D02*
X62500Y-30500D01*
X62500Y-30500D02*
X62500Y-27000D01*
X62500Y-27000D02*
X62500Y-24000D01*
X62500Y-24000D02*
X62500Y-22500D01*
X62500Y-22500D02*
X63000Y-22000D01*
X55000Y-63000D02*
X62000Y-63000D01*
G54D27*
X66500Y-58000D02*
X65500Y-58000D01*
X65500Y-58000D02*
X65000Y-58500D01*
X65000Y-58500D02*
X65000Y-60500D01*
X65000Y-60500D02*
X65000Y-61500D01*
X65000Y-61500D02*
X64500Y-62000D01*
X64500Y-62000D02*
X63500Y-62000D01*
X66500Y-47500D02*
X65500Y-47500D01*
X64500Y-51500D02*
X63500Y-51500D01*
X65000Y-51000D02*
X64500Y-51500D01*
X65000Y-50000D02*
X65000Y-51000D01*
X65000Y-48000D02*
X65000Y-50000D01*
X65500Y-47500D02*
X65000Y-48000D01*
X66500Y-37000D02*
X65500Y-37000D01*
X64500Y-41000D02*
X63500Y-41000D01*
X65000Y-40500D02*
X64500Y-41000D01*
X65000Y-37500D02*
X65000Y-40500D01*
X65500Y-37000D02*
X65000Y-37500D01*
X66500Y-26500D02*
X65500Y-26500D01*
X64500Y-30500D02*
X63500Y-30500D01*
X65000Y-30000D02*
X64500Y-30500D01*
X65000Y-27000D02*
X65000Y-30000D01*
X65500Y-26500D02*
X65000Y-27000D01*
G54D26*
X63000Y-32500D02*
X64000Y-32500D01*
X63000Y-43000D02*
X64000Y-43000D01*
X63000Y-53500D02*
X64000Y-53500D01*
X63000Y-51500D02*
X63500Y-51500D01*
X63000Y-41000D02*
X63500Y-41000D01*
X63000Y-30500D02*
X63500Y-30500D01*
X63000Y-22000D02*
X64000Y-22000D01*
X47000Y-65500D02*
X49500Y-63000D01*
X49500Y-63000D02*
X53500Y-63000D01*
X52500Y-64000D02*
X53500Y-63000D01*
X52500Y-62000D02*
X53500Y-63000D01*
X53500Y-63000D02*
X55000Y-63000D01*
G54D28*
X37500Y-65500D02*
X36500Y-64500D01*
X36500Y-59500D02*
X37500Y-58500D01*
X36500Y-64500D02*
X36500Y-59500D01*
X37500Y-58500D02*
X36500Y-57500D01*
X36500Y-55000D02*
X37500Y-54000D01*
X36500Y-56000D02*
X36500Y-55000D01*
X36500Y-57500D02*
X36500Y-56000D01*
X37500Y-54000D02*
X36500Y-53000D01*
X36500Y-50500D02*
X37500Y-49500D01*
X36500Y-51500D02*
X36500Y-50500D01*
X36500Y-53000D02*
X36500Y-51500D01*
X37500Y-49500D02*
X36500Y-48500D01*
X36500Y-46000D02*
X37500Y-45000D01*
X36500Y-48500D02*
X36500Y-46000D01*
X37500Y-45000D02*
X36500Y-44000D01*
X36500Y-40000D02*
X37500Y-39000D01*
X36500Y-41000D02*
X36500Y-40000D01*
X36500Y-44000D02*
X36500Y-41000D01*
X37500Y-39000D02*
X36500Y-38000D01*
X36500Y-35500D02*
X37500Y-34500D01*
X36500Y-36500D02*
X36500Y-35500D01*
X36500Y-38000D02*
X36500Y-36500D01*
X37500Y-34500D02*
X36500Y-33500D01*
X36500Y-31000D02*
X37500Y-30000D01*
X36500Y-33500D02*
X36500Y-31000D01*
X37500Y-30000D02*
X36500Y-29000D01*
X36500Y-26500D02*
X37500Y-25500D01*
X36500Y-27500D02*
X36500Y-26500D01*
X36500Y-29000D02*
X36500Y-27500D01*
X37500Y-21000D02*
X37500Y-25500D01*
X38500Y-25000D02*
X38500Y-21000D01*
X38500Y-29500D02*
X38500Y-26000D01*
X42000Y-24500D02*
X43000Y-25500D01*
X40500Y-24500D02*
X42000Y-24500D01*
X39000Y-24500D02*
X40500Y-24500D01*
X38500Y-25000D02*
X39000Y-24500D01*
X38500Y-26000D02*
X38500Y-25000D01*
X38500Y-34000D02*
X38500Y-29500D01*
X42000Y-29000D02*
X43000Y-30000D01*
X39000Y-29000D02*
X42000Y-29000D01*
X38500Y-29500D02*
X39000Y-29000D01*
X38500Y-38500D02*
X38500Y-34000D01*
X42000Y-33500D02*
X43000Y-34500D01*
X39000Y-33500D02*
X42000Y-33500D01*
X38500Y-34000D02*
X39000Y-33500D01*
X38500Y-44500D02*
X38500Y-38500D01*
X42000Y-38000D02*
X43000Y-39000D01*
X39000Y-38000D02*
X42000Y-38000D01*
X38500Y-38500D02*
X39000Y-38000D01*
X38500Y-49000D02*
X38500Y-44500D01*
X42000Y-44000D02*
X43000Y-45000D01*
X39000Y-44000D02*
X42000Y-44000D01*
X38500Y-44500D02*
X39000Y-44000D01*
X38500Y-53500D02*
X38500Y-49000D01*
X42000Y-48500D02*
X43000Y-49500D01*
X39000Y-48500D02*
X42000Y-48500D01*
X38500Y-49000D02*
X39000Y-48500D01*
X38500Y-58000D02*
X38500Y-54000D01*
X42000Y-53000D02*
X43000Y-54000D01*
X39000Y-53000D02*
X42000Y-53000D01*
X38500Y-53500D02*
X39000Y-53000D01*
X38500Y-54000D02*
X38500Y-53500D01*
X38500Y-65500D02*
X38500Y-58000D01*
X42000Y-57500D02*
X43000Y-58500D01*
X41500Y-57500D02*
X42000Y-57500D01*
X39000Y-57500D02*
X41500Y-57500D01*
X38500Y-58000D02*
X39000Y-57500D01*
M02*
